<?xml version="1.0" encoding="utf-8"?>
<!-- Generator: Adobe Illustrator 21.1.0, SVG Export Plug-In . SVG Version: 6.00 Build 0)  -->
<svg version="1.1" id="Layer_1" xmlns="http://www.w3.org/2000/svg" xmlns:xlink="http://www.w3.org/1999/xlink" x="0px" y="0px"
	 viewBox="0 0 44 68" style="enable-background:new 0 0 44 68;" xml:space="preserve">
<style type="text/css">
	.st0{fill:#FFFFFF;stroke:#D1D1D1;stroke-width:0.5;stroke-miterlimit:10;}
	.st1{fill:none;stroke:#2B2B2B;stroke-miterlimit:10;}
	.st2{display:none;fill:none;stroke:#2B2B2B;stroke-miterlimit:10;}
</style>
<path class="st0" d="M41.2,67.8H2.8c-1.4,0-2.5-1.1-2.5-2.5V2.8c0-1.4,1.1-2.5,2.5-2.5h38.5c1.4,0,2.5,1.1,2.5,2.5v62.5
	C43.7,66.6,42.6,67.8,41.2,67.8z"/>
<g>
	<path class="st1" d="M17.8,32.8c0,0,1.2-0.2,1.5-0.2s1.2,0.1,1.4-1.5l0-0.8c0,0,0.2-0.3,0.4-0.3c0,0,0.2-0.2,0-0.5
		c-0.2-0.3-0.6-0.3-0.1-2c0.4-1.7,0-3.4-3-4.6s-5.6,0.8-6.2,2.5c-0.6,1.6-0.8,2.8,0.8,5.1s1.5,2.5,1.4,3.6c-0.1,1.1-0.6,3.3,3.2,7
		c3.8,3.8,9.3,4.3,11.9,1.5c2.6-2.8-0.8-5.7-1.1-6.4c-0.3-0.6-1.2-1.6-0.6-3"/>
	<path class="st1" d="M27.3,31c0,0-0.5-1.3-1.5-0.5c0,0-0.4,0.3-0.4,0.6c0,0.3-0.7,0.6-1.2,0.7c-0.6,0.1-2.1,1-2.4,1.3
		c0,0-0.5-0.7-1.4-0.5"/>
	<path class="st1" d="M23.9,34.9c0,0-1.1,1.5-2.4,1.3s-2.5-1.4-3.6-1.3"/>
	<path class="st1" d="M30.5,40.4c0,0,1.3,0.8,2.8-1.6s-0.8-1.2-1.3-1.4c-0.5-0.1-0.8,0-1-2.2c-0.2-2.2-2.4-6.9-5.5-2.3
		c0,0-1,2.1,0.2,6.1"/>
	<path class="st1" d="M13.9,40.5c0,0,2.3,6.7,11,6"/>
	<path class="st2" d="M28.4,27.3c0,0-3.4,1-5-2.6s-4.2-4.9-6.3-4.1"/>
</g>
<path class="st1" d="M30.4,25.4c0,0-0.9,3-1.9,3.1c-1,0-1,1-1,1"/>
</svg>
