<?xml version="1.0" encoding="utf-8"?>
<!-- Generator: Adobe Illustrator 21.1.0, SVG Export Plug-In . SVG Version: 6.00 Build 0)  -->
<svg version="1.1" id="Layer_1" xmlns="http://www.w3.org/2000/svg" xmlns:xlink="http://www.w3.org/1999/xlink" x="0px" y="0px"
	 viewBox="0 0 44 68" style="enable-background:new 0 0 44 68;" xml:space="preserve">
<style type="text/css">
	.st0{fill:#FFFFFF;}
	.st1{clip-path:url(#SVGID_2_);fill:#F7F7F7;enable-background:new    ;}
	.st2{fill:#E54B50;}
</style>
<g>
	<path class="st0" d="M41.1,67.8H2.7c-1.4,0-2.5-1.1-2.5-2.5V2.7c0-1.4,1.1-2.5,2.5-2.5h38.5c1.4,0,2.5,1.1,2.5,2.5v62.5
		C43.7,66.5,42.5,67.8,41.1,67.8z"/>
	<g>
		<g>
			<defs>
				<path id="SVGID_1_" d="M41.3,67.8H2.8c-1.4,0-2.5-1.1-2.5-2.5V2.7c0-1.4,1.1-2.5,2.5-2.5h38.5c1.4,0,2.5,1.1,2.5,2.5v62.5
					C43.8,66.5,42.7,67.8,41.3,67.8z"/>
			</defs>
			<clipPath id="SVGID_2_">
				<use xlink:href="#SVGID_1_"  style="overflow:visible;"/>
			</clipPath>
			<path class="st1" d="M-0.9,61.2c0,0,45,3.7,45.8-53.6s2.4,63.1,2.4,63.1l-50.5,2.2L-0.9,61.2z"/>
		</g>
	</g>
</g>
<path class="st2" d="M22.3,20.8c-6.7,0-12.2,5.5-12.2,12.2c0,3.3,1.3,6.6,3.6,8.9c2.2,2.2,5.1,3.4,8.2,3.4c0.2,0,0.3,0,0.5,0
	c6.8-0.3,12.2-5.7,12.2-12.2C34.5,26.3,29.1,20.8,22.3,20.8z M22.3,22c2.7,0,5.1,1,7.1,2.6L13.8,40.2c-1.6-2-2.5-4.6-2.5-7.2
	C11.3,26.9,16.2,22,22.3,22z M22.3,44c-2.9,0.1-5.6-0.9-7.7-3l15.6-15.8c1.9,2,3.1,4.7,3.1,7.7C33.4,38.9,28.5,43.8,22.3,44z"/>
</svg>
