<?xml version="1.0" encoding="utf-8"?>
<!-- Generator: Adobe Illustrator 21.1.0, SVG Export Plug-In . SVG Version: 6.00 Build 0)  -->
<svg version="1.1" id="Layer_1" xmlns="http://www.w3.org/2000/svg" xmlns:xlink="http://www.w3.org/1999/xlink" x="0px" y="0px"
	 viewBox="0 0 44 68" style="enable-background:new 0 0 44 68;" xml:space="preserve">
<style type="text/css">
	.st0{fill:url(#SVGID_1_);}
	.st1{opacity:0.12;clip-path:url(#SVGID_3_);fill:#252525;}
	.st2{fill:none;stroke:#FFFFFF;stroke-width:0.5;stroke-miterlimit:10;}
	.st3{fill:#FFFFFF;}
	.st4{opacity:0.29;fill:none;stroke:#FFFFFF;stroke-miterlimit:10;}
</style>
<linearGradient id="SVGID_1_" gradientUnits="userSpaceOnUse" x1="-8.1393" y1="16.6036" x2="52.1371" y2="51.4042">
	<stop  offset="0" style="stop-color:#FF7D4C"/>
	<stop  offset="1" style="stop-color:#FF3960"/>
</linearGradient>
<path class="st0" d="M41.2,67.8H2.8c-1.4,0-2.5-1.1-2.5-2.5V2.8c0-1.4,1.1-2.5,2.5-2.5h38.5c1.4,0,2.5,1.1,2.5,2.5v62.5
	C43.8,66.6,42.6,67.8,41.2,67.8z"/>
<g>
	<defs>
		<path id="SVGID_2_" d="M41.4,67.8H2.9c-1.4,0-2.5-1.1-2.5-2.5V2.8c0-1.4,1.1-2.5,2.5-2.5h38.5c1.4,0,2.5,1.1,2.5,2.5v62.5
			C43.9,66.6,42.8,67.8,41.4,67.8z"/>
	</defs>
	<clipPath id="SVGID_3_">
		<use xlink:href="#SVGID_2_"  style="overflow:visible;"/>
	</clipPath>
	<path class="st1" d="M-0.8,61.3c0,0,45,3.7,45.8-53.6c0.8-57.3,2.4,63.1,2.4,63.1L-3.1,73L-0.8,61.3z"/>
</g>
<g>
	<g>
		<circle class="st2" cx="16" cy="16" r="4.5"/>
		<circle class="st3" cx="16" cy="16" r="2.5"/>
	</g>
	<g>
		<g>
			<circle class="st2" cx="30" cy="35" r="4.5"/>
			<circle class="st3" cx="30" cy="35" r="2.5"/>
		</g>
	</g>
	<g>
		<g>
			<circle class="st2" cx="17" cy="52" r="4.5"/>
			<circle class="st3" cx="17" cy="52" r="2.5"/>
		</g>
	</g>
</g>
<line class="st4" x1="21.5" y1="46" x2="25.5" y2="41"/>
<line class="st4" x1="21" y1="22.5" x2="25" y2="27.5"/>
</svg>
