<?xml version="1.0" encoding="utf-8"?>
<!-- Generator: Adobe Illustrator 21.1.0, SVG Export Plug-In . SVG Version: 6.00 Build 0)  -->
<svg version="1.1" id="Layer_1" xmlns="http://www.w3.org/2000/svg" xmlns:xlink="http://www.w3.org/1999/xlink" x="0px" y="0px"
	 viewBox="0 0 44 68" style="enable-background:new 0 0 44 68;" xml:space="preserve">
<style type="text/css">
	.st0{fill:url(#SVGID_1_);}
	.st1{opacity:0.12;clip-path:url(#SVGID_3_);fill:#252525;enable-background:new    ;}
	.st2{fill:#FFFFFF;}
	.st3{font-family:'Avenir-Medium';}
	.st4{font-size:17px;}
</style>
<linearGradient id="SVGID_1_" gradientUnits="userSpaceOnUse" x1="-8.0915" y1="53.3522" x2="52.1539" y2="18.5695" gradientTransform="matrix(1 0 0 -1 0 70)">
	<stop  offset="0" style="stop-color:#96CD5D"/>
	<stop  offset="1" style="stop-color:#009B52"/>
</linearGradient>
<path class="st0" d="M41.2,67.8H2.8c-1.4,0-2.5-1.1-2.5-2.5V2.8c0-1.4,1.1-2.5,2.5-2.5h38.5c1.4,0,2.5,1.1,2.5,2.5v62.5
	C43.8,66.6,42.6,67.8,41.2,67.8z"/>
<g>
	<g>
		<defs>
			<path id="SVGID_2_" d="M41.4,67.8H2.9c-1.4,0-2.5-1.1-2.5-2.5V2.8c0-1.4,1.1-2.5,2.5-2.5h38.5c1.4,0,2.5,1.1,2.5,2.5v62.5
				C43.9,66.6,42.8,67.8,41.4,67.8z"/>
		</defs>
		<clipPath id="SVGID_3_">
			<use xlink:href="#SVGID_2_"  style="overflow:visible;"/>
		</clipPath>
		<path class="st1" d="M-0.8,61.3c0,0,45,3.7,45.8-53.6s2.4,63.1,2.4,63.1L-3.1,73L-0.8,61.3z"/>
	</g>
</g>
<text transform="matrix(1 0 0 1 17.2905 40.1594)" class="st2 st3 st4">1</text>
</svg>
