<?xml version="1.0" encoding="utf-8"?>
<!-- Generator: Adobe Illustrator 21.1.0, SVG Export Plug-In . SVG Version: 6.00 Build 0)  -->
<svg version="1.1" id="Layer_1" xmlns="http://www.w3.org/2000/svg" xmlns:xlink="http://www.w3.org/1999/xlink" x="0px" y="0px"
	 viewBox="0 0 44 68" style="enable-background:new 0 0 44 68;" xml:space="preserve">
<style type="text/css">
	.st0{fill:url(#SVGID_1_);}
	.st1{opacity:0.12;clip-path:url(#SVGID_3_);fill:#252525;enable-background:new    ;}
	.st2{fill:#FFFFFF;}
	.st3{font-family:'Avenir-Medium';}
	.st4{font-size:17px;}
</style>
<linearGradient id="SVGID_1_" gradientUnits="userSpaceOnUse" x1="-8.1915" y1="53.4022" x2="52.0539" y2="18.6195" gradientTransform="matrix(1 0 0 -1 0 70)">
	<stop  offset="0" style="stop-color:#FF9C1A"/>
	<stop  offset="1" style="stop-color:#FFC200"/>
</linearGradient>
<path class="st0" d="M41.1,67.8H2.7c-1.4,0-2.5-1.1-2.5-2.5V2.7c0-1.4,1.1-2.5,2.5-2.5h38.5c1.4,0,2.5,1.1,2.5,2.5v62.5
	C43.7,66.5,42.5,67.8,41.1,67.8z"/>
<g>
	<g>
		<defs>
			<path id="SVGID_2_" d="M41.3,67.8H2.8c-1.4,0-2.5-1.1-2.5-2.5V2.7c0-1.4,1.1-2.5,2.5-2.5h38.5c1.4,0,2.5,1.1,2.5,2.5v62.5
				C43.8,66.5,42.7,67.8,41.3,67.8z"/>
		</defs>
		<clipPath id="SVGID_3_">
			<use xlink:href="#SVGID_2_"  style="overflow:visible;"/>
		</clipPath>
		<path class="st1" d="M-0.9,61.2c0,0,45,3.7,45.8-53.6s2.4,63.1,2.4,63.1l-50.5,2.2L-0.9,61.2z"/>
	</g>
</g>
<text transform="matrix(1 0 0 1 17.1703 38.4131)" class="st2 st3 st4">1</text>
</svg>
