<?xml version="1.0" encoding="utf-8"?>
<!-- Generator: Adobe Illustrator 21.1.0, SVG Export Plug-In . SVG Version: 6.00 Build 0)  -->
<svg version="1.1" id="Layer_1" xmlns="http://www.w3.org/2000/svg" xmlns:xlink="http://www.w3.org/1999/xlink" x="0px" y="0px"
	 viewBox="0 0 44 68" style="enable-background:new 0 0 44 68;" xml:space="preserve">
<style type="text/css">
	.st0{fill:#FFFFFF;}
	.st1{clip-path:url(#SVGID_2_);fill:#F7F7F7;enable-background:new    ;}
	.st2{fill:none;stroke:#2B2B2B;stroke-miterlimit:10;}
	.st3{display:none;fill:none;stroke:#2B2B2B;stroke-miterlimit:10;}
	.st4{fill:#444444;}
	.st5{font-family:'Avenir-Medium';}
	.st6{font-size:16px;}
</style>
<path class="st0" d="M41.2,67.8H2.8c-1.4,0-2.5-1.1-2.5-2.5V2.8c0-1.4,1.1-2.5,2.5-2.5h38.5c1.4,0,2.5,1.1,2.5,2.5v62.5
	C43.8,66.6,42.6,67.8,41.2,67.8z"/>
<g>
	<g>
		<defs>
			<path id="SVGID_1_" d="M41.4,67.8H2.9c-1.4,0-2.5-1.1-2.5-2.5V2.8c0-1.4,1.1-2.5,2.5-2.5h38.5c1.4,0,2.5,1.1,2.5,2.5v62.5
				C43.9,66.6,42.8,67.8,41.4,67.8z"/>
		</defs>
		<clipPath id="SVGID_2_">
			<use xlink:href="#SVGID_1_"  style="overflow:visible;"/>
		</clipPath>
		<path class="st1" d="M-0.8,61.3c0,0,45,3.7,45.8-53.6s2.4,63.1,2.4,63.1L-3.1,73L-0.8,61.3z"/>
	</g>
</g>
<g>
	<g>
		<path class="st2" d="M17.8,30.8c0,0,1.2-0.2,1.5-0.2s1.2,0.1,1.4-1.5v-0.8c0,0,0.2-0.3,0.4-0.3c0,0,0.2-0.2,0-0.5s-0.6-0.3-0.1-2
			c0.4-1.7,0-3.4-3-4.6s-5.6,0.8-6.2,2.5s-0.8,2.8,0.8,5.1s1.5,2.5,1.4,3.6s-0.6,3.3,3.2,7s9.3,4.3,11.9,1.5s-0.8-5.7-1.1-6.4
			s-1.2-1.6-0.6-3"/>
		<path class="st2" d="M27.3,29c0,0-0.5-1.3-1.5-0.5c0,0-0.4,0.3-0.4,0.6c0,0.3-0.7,0.6-1.2,0.7s-2.1,1-2.4,1.3c0,0-0.5-0.7-1.4-0.5
			"/>
		<path class="st2" d="M23.9,32.9c0,0-1.1,1.5-2.4,1.3s-2.5-1.4-3.6-1.3"/>
		<path class="st2" d="M30.5,38.4c0,0,1.3,0.8,2.8-1.6s-0.8-1.2-1.3-1.4c-0.5-0.1-0.8,0-1-2.2s-2.4-6.9-5.5-2.3c0,0-1,2.1,0.2,6.1"
			/>
		<path class="st2" d="M13.9,38.5c0,0,2.3,6.7,11,6"/>
		<path class="st3" d="M28.4,25.3c0,0-3.4,1-5-2.6c-1.5-3.6-4.2-4.9-6.3-4.1"/>
	</g>
	<path class="st2" d="M30.4,23.4c0,0-0.9,3-1.9,3.1c-1,0-1,1-1,1"/>
</g>
<text transform="matrix(1 0 0 1 6.253 60.8203)" class="st4 st5 st6">x</text>
</svg>
