<?xml version="1.0" encoding="utf-8"?>
<!-- Generator: Adobe Illustrator 21.1.0, SVG Export Plug-In . SVG Version: 6.00 Build 0)  -->
<svg version="1.1" id="Layer_1" xmlns="http://www.w3.org/2000/svg" xmlns:xlink="http://www.w3.org/1999/xlink" x="0px" y="0px"
	 viewBox="0 0 44 68" style="enable-background:new 0 0 44 68;" xml:space="preserve">
<style type="text/css">
	.st0{fill:url(#SVGID_1_);}
	.st1{opacity:0.12;clip-path:url(#SVGID_3_);fill:#252525;}
	.st2{fill:none;stroke:#FFFFFF;stroke-miterlimit:10;}
	.st3{display:none;fill:none;stroke:#FFFFFF;stroke-miterlimit:10;}
	.st4{fill:#FFFFFF;}
	.st5{font-family:'Avenir-Medium';}
	.st6{font-size:14px;}
</style>
<linearGradient id="SVGID_1_" gradientUnits="userSpaceOnUse" x1="-8.1393" y1="16.6036" x2="52.1371" y2="51.4042">
	<stop  offset="0" style="stop-color:#96CD5D"/>
	<stop  offset="1" style="stop-color:#009B52"/>
</linearGradient>
<path class="st0" d="M41.2,67.8H2.8c-1.4,0-2.5-1.1-2.5-2.5V2.8c0-1.4,1.1-2.5,2.5-2.5h38.5c1.4,0,2.5,1.1,2.5,2.5v62.5
	C43.8,66.6,42.6,67.8,41.2,67.8z"/>
<g>
	<defs>
		<path id="SVGID_2_" d="M41.4,67.8H2.9c-1.4,0-2.5-1.1-2.5-2.5V2.8c0-1.4,1.1-2.5,2.5-2.5h38.5c1.4,0,2.5,1.1,2.5,2.5v62.5
			C43.9,66.6,42.8,67.8,41.4,67.8z"/>
	</defs>
	<clipPath id="SVGID_3_">
		<use xlink:href="#SVGID_2_"  style="overflow:visible;"/>
	</clipPath>
	<path class="st1" d="M-0.8,61.3c0,0,45,3.7,45.8-53.6c0.8-57.3,2.4,63.1,2.4,63.1L-3.1,73L-0.8,61.3z"/>
</g>
<g>
	<g>
		<g>
			<path class="st2" d="M17.9,32c0,0,1.2-0.2,1.5-0.2c0.3,0,1.2,0.1,1.4-1.5l0-0.8c0,0,0.2-0.3,0.4-0.3c0,0,0.2-0.2,0-0.5
				c-0.2-0.3-0.6-0.3-0.1-2s0-3.4-3-4.6s-5.6,0.8-6.2,2.5s-0.8,2.8,0.8,5.1s1.5,2.5,1.4,3.6c-0.1,1.1-0.6,3.3,3.2,7
				s9.3,4.3,11.9,1.5s-0.8-5.7-1.1-6.4s-1.2-1.6-0.6-3"/>
			<path class="st2" d="M27.4,30.1c0,0-0.5-1.3-1.5-0.5c0,0-0.4,0.3-0.4,0.6c0,0.3-0.7,0.6-1.2,0.7s-2.1,1-2.4,1.3
				c0,0-0.5-0.7-1.4-0.5"/>
			<path class="st2" d="M24,34c0,0-1.1,1.5-2.4,1.3c-1.3-0.2-2.5-1.4-3.6-1.3"/>
			<path class="st2" d="M30.5,39.6c0,0,1.3,0.8,2.8-1.6c1.5-2.3-0.8-1.2-1.3-1.4c-0.5-0.1-0.8,0-1-2.2c-0.2-2.2-2.4-6.9-5.5-2.3
				c0,0-1,2.1,0.2,6.1"/>
			<path class="st2" d="M13.9,39.7c0,0,2.3,6.7,11,6"/>
			<path class="st3" d="M28.4,26.4c0,0-3.4,1-5-2.6c-1.5-3.6-4.2-4.9-6.3-4.1"/>
		</g>
		<path class="st2" d="M30.5,24.5c0,0-0.9,3-1.9,3.1c-1,0-1,1-1,1"/>
	</g>
	<text transform="matrix(1 0 0 1 6.6061 59.6067)" class="st4 st5 st6">2</text>
</g>
</svg>
